<svg width="1257" height="196" viewBox="0 0 1257 196" fill="none" xmlns="http://www.w3.org/2000/svg">
<g clip-path="url(#clip0_9002_1926)">
<path d="M71.2068 196C57.7949 196 45.7065 193.023 34.9416 187.069C24.1768 180.94 15.6178 172.448 9.26483 161.591C3.08827 150.734 0 137.951 0 123.241C0 108.357 3.08827 95.4862 9.26483 84.6293C15.6178 73.7725 24.1768 65.3671 34.9416 59.4133C45.7065 53.4596 57.7949 50.4827 71.2068 50.4827C83.207 50.4827 93.7071 53.1093 102.707 58.3627C111.707 63.616 118.678 71.5836 123.619 82.2653C128.56 92.9471 131.031 106.606 131.031 123.241C131.031 139.702 128.649 153.36 123.884 164.217C119.119 174.899 112.237 182.867 103.237 188.12C94.413 193.373 83.7364 196 71.2068 196ZM78.354 162.379C85.0599 162.379 91.1482 160.803 96.6189 157.651C102.09 154.499 106.413 150.033 109.59 144.255C112.943 138.301 114.619 131.296 114.619 123.241C114.619 115.011 112.943 108.007 109.59 102.228C106.413 96.4493 102.09 91.984 96.6189 88.832C91.1482 85.68 85.0599 84.104 78.354 84.104C71.4715 84.104 65.295 85.68 59.8243 88.832C54.3537 91.984 49.9418 96.4493 46.5888 102.228C43.4123 108.007 41.8241 115.011 41.8241 123.241C41.8241 131.296 43.4123 138.301 46.5888 144.255C49.9418 150.033 54.3537 154.499 59.8243 157.651C65.295 160.803 71.4715 162.379 78.354 162.379ZM115.678 195.899V165.005L116.472 122.979L113.825 81.2147V-1H155.12V195.899H115.678Z" fill="white"></path>
<path d="M261.369 196C245.134 196 230.84 192.848 218.487 186.544C206.31 180.24 196.869 171.66 190.163 160.803C183.457 149.771 180.104 137.25 180.104 123.241C180.104 109.057 183.368 96.5369 189.898 85.68C196.604 74.648 205.692 66.0676 217.163 59.9387C228.634 53.6347 241.604 50.4827 256.075 50.4827C270.017 50.4827 282.546 53.4596 293.664 59.4133C304.958 65.192 313.87 73.5973 320.4 84.6293C326.929 95.4862 330.194 108.532 330.194 123.767C330.194 125.343 330.106 127.181 329.929 129.283C329.753 131.209 329.576 133.048 329.4 134.799H213.722V110.896H307.694L291.811 117.988C291.811 110.633 290.311 104.242 287.311 98.8133C284.311 93.3849 280.164 89.1822 274.87 86.2053C269.575 83.0533 263.399 81.4773 256.34 81.4773C249.281 81.4773 243.016 83.0533 237.546 86.2053C232.251 89.1822 228.104 93.4724 225.104 99.076C222.104 104.504 220.604 110.984 220.604 118.513V124.817C220.604 132.522 222.281 139.352 225.634 145.305C229.163 151.084 234.016 155.549 240.193 158.701C246.546 161.678 253.958 163.167 262.428 163.167C270.017 163.167 276.634 162.028 282.281 159.752C288.105 157.476 293.399 154.061 298.164 149.508L320.135 173.148C313.605 180.503 305.399 186.194 295.517 190.221C285.634 194.074 274.252 196 261.369 196Z" fill="white"></path>
<path d="M391.102 195.899L331.277 52.584H373.896L423.661 174.199H402.484L454.103 52.584H493.809L433.72 195.899H391.102Z" fill="white"></path>
<path d="M501.616 195.902L565.411 110.899L564.616 133.488L503.469 52.5869H549.793L588.44 105.383L570.969 105.908L610.941 52.5869H654.882L593.47 132.7V110.636L657 195.902H610.146L569.646 137.691L586.852 140.055L546.616 195.902H501.616Z" fill="white"></path>
<path d="M749.963 196.124H715.635V0H749.963V196.124ZM844.841 52.3584C865.094 52.3584 880.859 57.227 892.006 67.0898L892.534 67.5498C903.548 77.2937 908.975 92.2066 908.975 112.096V196.124H876.469V179.184C873.352 183.118 869.371 186.421 864.531 189.088C856.379 193.675 846.068 195.938 833.651 195.938C823.144 195.938 813.907 194.194 805.964 190.678L805.956 190.675L805.948 190.671C798.018 186.984 791.814 181.963 787.374 175.596L787.358 175.572C783.096 169.026 780.967 161.683 780.967 153.567C780.967 145.645 782.825 138.487 786.555 132.117L786.564 132.102C790.502 125.684 796.828 120.653 805.454 116.971C814.109 113.276 825.52 111.455 839.636 111.455H874.646V110.281C874.646 100.969 871.85 93.892 866.355 88.917L866.35 88.9121L866.345 88.9072C860.852 83.7677 852.44 81.1143 840.938 81.1143C833.226 81.1143 825.597 82.3093 818.05 84.7012C810.684 87.0905 804.459 90.4093 799.356 94.6445L798.512 95.3457L797.989 94.3799L785.239 70.793L784.873 70.1172L785.484 69.6504C792.812 64.0491 801.447 59.8558 811.374 57.0615L812.339 56.7959C822.826 53.8372 833.661 52.3584 844.841 52.3584ZM983.247 69.4824C986.646 66.0196 990.421 63.0999 994.575 60.7305L995.448 60.2441C1004.96 54.9843 1015.43 52.3585 1026.85 52.3584C1040.68 52.3585 1052.89 55.3245 1063.45 61.2842L1064.45 61.8496C1074.7 67.7599 1082.81 75.8927 1088.77 86.2354C1095.11 96.9369 1098.27 109.543 1098.27 124.019C1098.27 138.49 1095.11 151.092 1088.78 161.792C1082.62 172.471 1074.18 180.881 1063.46 187.008L1063.46 187.01C1052.9 192.971 1040.68 195.938 1026.85 195.938C1014.91 195.938 1004.26 193.315 994.916 188.047C989.957 185.251 985.547 181.715 981.687 177.447V196.124H948.92V0H983.247V69.4824ZM1177.66 52.3584C1187.09 52.3584 1196.61 53.4027 1206.21 55.4893C1215.82 57.5773 1223.81 60.5446 1230.17 64.4121L1230.88 64.8457L1230.5 65.5879L1218.01 90.2119L1217.57 91.0752L1216.75 90.5762C1210.23 86.6489 1203.65 84.011 1196.99 82.6514L1196.98 82.6484L1196.97 82.6455C1190.44 81.106 1183.92 80.3369 1177.4 80.3369C1167.57 80.337 1160.4 81.8011 1155.75 84.6094C1151.26 87.4253 1149.15 90.8827 1149.15 94.9893C1149.15 98.8723 1150.59 101.683 1153.43 103.57C1156.44 105.568 1160.41 107.176 1165.38 108.37C1170.37 109.572 1175.9 110.603 1181.95 111.464H1181.95C1188.22 112.16 1194.41 113.289 1200.52 114.853C1206.64 116.421 1212.26 118.603 1217.35 121.398L1217.85 121.652C1222.96 124.303 1227.09 128.042 1230.2 132.862C1233.44 137.889 1235.02 144.382 1235.02 152.271C1235.02 161.107 1232.36 168.828 1227.02 175.39L1227.01 175.389C1221.86 181.93 1214.52 187.023 1205.04 190.694L1205.04 190.697L1205.03 190.699C1195.54 194.201 1184.24 195.938 1171.15 195.938C1159.45 195.938 1148.18 194.46 1137.34 191.501L1137.34 191.498L1137.33 191.496C1126.69 188.37 1118.18 184.621 1111.83 180.228L1111.18 179.78L1111.54 179.08L1124.03 154.456L1124.48 153.571L1125.31 154.104C1131.48 158.025 1138.86 161.277 1147.47 163.851C1156.06 166.419 1164.65 167.701 1173.23 167.701C1183.43 167.701 1190.59 166.315 1194.88 163.687L1194.89 163.683L1194.89 163.679C1199.36 161.044 1201.48 157.597 1201.48 153.309C1201.48 149.806 1200.07 147.253 1197.22 145.523L1197.21 145.515L1197.2 145.505C1194.2 143.514 1190.24 141.992 1185.28 140.971C1180.27 139.939 1174.65 138.992 1168.42 138.13L1168.42 138.129C1162.33 137.262 1156.14 136.134 1149.88 134.747L1149.86 134.744L1149.85 134.74C1143.71 133.168 1138.09 130.981 1132.98 128.177L1132.97 128.172L1132.96 128.166C1127.81 125.158 1123.63 121.171 1120.43 116.213C1117.19 111.184 1115.6 104.602 1115.6 96.5439C1115.6 87.5475 1118.18 79.7433 1123.34 73.1777C1128.49 66.4653 1135.66 61.3679 1144.8 57.8643L1145.68 57.5244C1154.81 54.0721 1165.47 52.3584 1177.66 52.3584ZM841.979 134.769C836.47 134.769 831.906 135.219 828.27 136.104C824.627 136.989 821.973 138.297 820.22 139.964L820.211 139.972L820.203 139.979C816.577 143.262 814.774 147.34 814.774 152.271C814.774 157.864 816.983 162.26 821.435 165.544C825.91 168.846 832.202 170.552 840.417 170.552C848.255 170.552 855.209 168.771 861.303 165.23L861.312 165.226C867.498 161.729 871.938 156.586 874.646 149.765V134.769H841.979ZM1023.2 81.6328C1015.53 81.6329 1008.66 83.3288 1002.56 86.7041C996.47 90.074 991.644 94.9601 988.078 101.387L988.073 101.396L988.072 101.396C984.522 107.626 982.727 115.155 982.727 124.019C982.727 132.705 984.521 140.239 988.078 146.65C991.644 153.077 996.47 157.963 1002.56 161.333C1008.66 164.708 1015.53 166.405 1023.2 166.405C1030.87 166.405 1037.65 164.709 1043.58 161.339L1043.58 161.333C1049.67 157.963 1054.5 153.077 1058.07 146.65C1061.62 140.239 1063.42 132.705 1063.42 124.019C1063.42 115.155 1061.62 107.626 1058.07 101.396L1058.07 101.387C1054.5 94.9602 1049.67 90.0739 1043.58 86.7041L1043.57 86.6992V86.6982C1037.65 83.3287 1030.87 81.6328 1023.2 81.6328Z" fill="white"></path>
</g>
<defs>
<clipPath id="clip0_9002_1926">
<rect width="1257" height="196" fill="white"></rect>
</clipPath>
</defs>
</svg>